<svg width="19" height="22" viewBox="0 0 19 22" fill="none" xmlns="http://www.w3.org/2000/svg">
<path opacity="0.5" fill-rule="evenodd" clip-rule="evenodd" d="M9.01568 7.17491L14.5933 3.95464L9.01568 0.734375V3.4607C7.35005 3.52117 5.73154 4.04319 4.34216 4.97155C2.86211 5.96048 1.70856 7.36609 1.02737 9.01062C0.346185 10.6552 0.167955 12.4648 0.515222 14.2106C0.862489 15.9564 1.71966 17.5601 2.97833 18.8187C4.237 20.0774 5.84065 20.9346 7.58648 21.2818C9.3323 21.6291 11.1419 21.4509 12.7864 20.7697C14.431 20.0885 15.8366 18.9349 16.8255 17.4549C17.8144 15.9749 18.3423 14.2348 18.3423 12.4548H17.3423C17.3423 14.037 16.8731 15.5837 15.994 16.8993C15.115 18.2149 13.8656 19.2403 12.4038 19.8458C10.9419 20.4513 9.33341 20.6097 7.78157 20.3011C6.22972 19.9924 4.80426 19.2304 3.68543 18.1116C2.56661 16.9928 1.80469 15.5673 1.49601 14.0155C1.18733 12.4636 1.34575 10.8551 1.95125 9.39331C2.55675 7.9315 3.58213 6.68207 4.89773 5.80302C6.12264 4.98456 7.54791 4.5214 9.01568 4.46144V7.17491Z" fill="white"/>
</svg>
